{"title":"Downton Abbey S06E04 x264 RB58.mp4","uid":12554995,"size":545158309,"categoryP":"video","categoryS":"tv_shows","magnet":"?xt=urn:btih:b0731cffd4247e950a922ed532f28970023d4e09&amp;dn=Downton+Abbey+S06E04+x264+RB58.mp4&amp;tr=udp%3A%2F%2Ftracker.leechers-paradise.org%3A6969&amp;tr=udp%3A%2F%2Fzer0day.ch%3A1337&amp;tr=udp%3A%2F%2Fopen.demonii.com%3A1337&amp;tr=udp%3A%2F%2Ftracker.coppersurfer.tk%3A6969&amp;tr=udp%3A%2F%2Fexodus.desync.com%3A6969","seeders":1,"leechers":0,"uploader":"RedBaron58","files":1,"time":1444616633,"description":"Downton Abbey S06E04 x264 mp4\r\n \nhttp://www.imdb.com/title/tt1606375/\r\n\r\nTrailer:\r\n\r\n\r\nPlease be patient My intial upload speed is limited.\r\nThank you for your kind comments and feedback on my other torrents, your feedback is welcome.\r\n\r\n\r\nAbout the Episode:\r\nTom and Sybbie return to Downton, but the peace is disrupted by an unexpected visit from an old friend. \r\nBaxter is faced with a dilemma after an encounter with Sergeant Willis, while Thomas struggles to fill \r\nCarson's shoes. Anna goes to London with Mary to deal with a crisis, while her secrets seem likely to \r\nbe exposed. Daisy is not happy with Cora, and Mary has an admirer\r\n \r\nStarring Maggie Smith, Hugh Bonneville and Michelle Dockery\r\n\r\nI hope you enjoy.\r\n\r\n\r\nTechnical:\r\n\r\nGeneral\r\nComplete name                            : H:Downton Abbey S06E04 x264 RB58.mp4\r\nFormat                                   : MPEG-4\r\nFormat profile                           : Base Media\r\nCodec ID                                 : isom\r\nFile size                                : 520 MiB\r\nDuration                                 : 47mn 33s\r\nOverall bit rate                         : 1 528 Kbps\r\nWriting application                      : Lavf54.63.104\r\n\r\nVideo\r\nID                                       : 1\r\nFormat                                   : AVC\r\nFormat/Info                              : Advanced Video Codec\r\nFormat profile                           :   \r\nFormat settings, CABAC                   : Yes\r\nFormat settings, ReFrames                : 4 frames\r\nCodec ID                                 : avc1\r\nCodec ID/Info                            : Advanced Video Coding\r\nDuration                                 : 47mn 33s\r\nBit rate                                 : 1 400 Kbps\r\nWidth                                    : 832 pixels\r\nHeight                                   : 468 pixels\r\nDisplay aspect ratio                     : 16:9\r\nFrame rate mode                          : Constant\r\nFrame rate                               : 25.000 fps\r\nColor space                              : YUV\r\nChroma subsampling                       : 4:2:0\r\nBit depth                                : 8 bits\r\nScan type                                : Progressive\r\nBits/(Pixel*Frame)                       : 0.144\r\nStream size                              : 476 MiB (92%)\r\nWriting library                          : x264 core 123 r2189 35cf912\r\nEncoding settings                        : cabac=1 / ref=3 / deblock=1:0:0\r\n\r\nAudio\r\nID                                       : 2\r\nFormat                                   : AAC\r\nFormat/Info                              : Advanced Audio Codec\r\nFormat profile                           : LC\r\nCodec ID                                 : 40\r\nDuration                                 : 47mn 33s\r\nBit rate mode                            : Constant\r\nBit rate                                 : 120 Kbps\r\nChannel(s)                               : 2 channels\r\nChannel positions                        : Front: L R\r\nSampling rate                            : 48.0 KHz\r\nCompression mode                         : Lossy\r\nStream size                              : 40.7 MiB (8%)\r\nLanguage                                 : English","torrent":{"xt":"urn:btih:b0731cffd4247e950a922ed532f28970023d4e09","amp;dn":"Downton+Abbey+S06E04+x264+RB58.mp4","amp;tr":["udp%3A%2F%2Ftracker.leechers-paradise.org%3A6969","udp%3A%2F%2Fzer0day.ch%3A1337","udp%3A%2F%2Fopen.demonii.com%3A1337","udp%3A%2F%2Ftracker.coppersurfer.tk%3A6969","udp%3A%2F%2Fexodus.desync.com%3A6969"],"infoHash":"b0731cffd4247e950a922ed532f28970023d4e09","infoHashBuffer":{"type":"Buffer","data":[176,115,28,255,212,36,126,149,10,146,46,213,50,242,137,112,2,61,78,9]},"announce":[],"urlList":[]}}